<svg id="Layer_1" data-name="Layer 1" xmlns="http://www.w3.org/2000/svg" viewBox="0 0 171.73 164.49"><defs><style>.cls-1{font-size:103.46px;font-family:Bauhaus93, "Bauhaus 93";}.cls-1,.cls-3{fill:#f15d5f;}.cls-2{font-size:28.45px;fill:#f15e60;font-family:Calibri-Light, Calibri;font-weight:300;}</style></defs><title>Logo</title><text class="cls-1" transform="translate(0 119.68)">FML</text><text class="cls-2" transform="translate(5 156.85)">Find My Lunch</text><ellipse class="cls-3" cx="109.78" cy="22.82" rx="15.93" ry="22.82"/><path class="cls-3" d="M284.55,210.6V191.4a3.59,3.59,0,0,0-7.18,0V211s0,.07,0,.1a3.53,3.53,0,0,1-1.95.59,3.61,3.61,0,0,1-1.92-.57s0-.08,0-.12V191.4a3.59,3.59,0,1,0-7.18,0v19.43a3.49,3.49,0,0,1-3.91.43c0-.1,0-.19,0-.28V191.4a3.59,3.59,0,1,0-7.18,0V211c0,.05,0,.1,0,.15s0,.25,0,.38c0,11.59,6.56,21,14.65,21s14.65-9.4,14.65-21C284.58,211.2,284.56,210.91,284.55,210.6Z" transform="translate(-196.43 -186.86)"/></svg>