<svg height="512" viewBox="0 0 64 64" width="512" xmlns="http://www.w3.org/2000/svg"><path d="m19 39.938h2v16.125h-2z" transform="matrix(.992 -.124 .124 .992 -5.799 2.851)"/><path d="m35.938 47h16.125v2h-16.125z" transform="matrix(.124 -.992 .992 .124 -9.087 85.707)"/><path d="m4 29a9.014 9.014 0 0 0 6.39 8.611l3.361 21.845a2.984 2.984 0 0 0 2.965 2.544h30.568a2.984 2.984 0 0 0 2.965-2.544l3.361-21.845a8.993 8.993 0 0 0 1.907-16.389 24 24 0 0 0 -47.034 0 8.958 8.958 0 0 0 -4.483 7.778zm44.272 30.152a.993.993 0 0 1 -.988.848h-30.568a.993.993 0 0 1 -.988-.848l-3.259-21.179c.177.01.352.027.531.027a9.018 9.018 0 0 0 6.5-2.786 8.973 8.973 0 0 0 12.5.486 8.973 8.973 0 0 0 12.5-.484 9.018 9.018 0 0 0 6.5 2.784c.179 0 .354-.017.531-.027zm-19.272-53.152a1 1 0 1 1 -1-1 1 1 0 0 1 1 1zm-18.64 16.052a21.948 21.948 0 0 1 14.79-16.943 2.956 2.956 0 0 0 -.15.891 3 3 0 0 0 6 0 2.973 2.973 0 0 0 -.717-1.924c.568-.044 1.139-.076 1.717-.076a21.971 21.971 0 0 1 21.64 18.052 1 1 0 0 0 .529.713 7 7 0 1 1 -8.857 10.3 1 1 0 0 0 -1.624 0 6.982 6.982 0 0 1 -10.938.55 1.03 1.03 0 0 0 -1.5 0 6.982 6.982 0 0 1 -10.938-.55 1.035 1.035 0 0 0 -1.624 0 7 7 0 1 1 -8.857-10.3 1 1 0 0 0 .529-.713z"/><path d="m20 19a3 3 0 1 0 -3-3 3 3 0 0 0 3 3zm0-4a1 1 0 1 1 -1 1 1 1 0 0 1 1-1z"/><path d="m29 31a3 3 0 1 0 -3-3 3 3 0 0 0 3 3zm0-4a1 1 0 1 1 -1 1 1 1 0 0 1 1-1z"/><path d="m41 17a3 3 0 1 0 -3-3 3 3 0 0 0 3 3zm0-4a1 1 0 1 1 -1 1 1 1 0 0 1 1-1z"/><path d="m49 28a3 3 0 1 0 -3-3 3 3 0 0 0 3 3zm0-4a1 1 0 1 1 -1 1 1 1 0 0 1 1-1z"/><path d="m11 33a3 3 0 1 0 -3-3 3 3 0 0 0 3 3zm0-4a1 1 0 1 1 -1 1 1 1 0 0 1 1-1z"/><path d="m28.586 14h2.828v2h-2.828z" transform="matrix(.707 -.707 .707 .707 -1.82 25.607)"/><path d="m37 21.586h2v2.828h-2z" transform="matrix(.707 -.707 .707 .707 -5.134 33.607)"/><path d="m17.586 23h2.828v2h-2.828z" transform="matrix(.707 -.707 .707 .707 -11.406 20.464)"/><path d="m51.586 30h2.828v2h-2.828z" transform="matrix(.707 -.707 .707 .707 -6.397 46.556)"/><path d="m31 39h2v18h-2z"/></svg>